<?xml version="1.0" standalone="no"?>
<!DOCTYPE svg PUBLIC "-//W3C//DTD SVG 20010904//EN"
 "http://www.w3.org/TR/2001/REC-SVG-20010904/DTD/svg10.dtd">
<svg version="1.0" xmlns="http://www.w3.org/2000/svg"
 width="1024.000000pt" height="1024.000000pt" viewBox="0 0 1024.000000 1024.000000"
 preserveAspectRatio="xMidYMid meet">

<g transform="translate(0.000000,1024.000000) scale(0.100000,-0.100000)"
fill="#000000" stroke="none">
<path d="M7028 6721 c-1 -4 -34 -29 -71 -54 -37 -25 -123 -97 -190 -160 -67
-63 -157 -145 -199 -182 l-77 -68 57 -30 c31 -16 59 -33 62 -37 3 -4 33 -22
68 -39 l63 -32 145 132 146 132 61 -60 c87 -83 234 -213 241 -213 4 0 59 34
123 76 l116 75 -104 106 c-134 136 -397 363 -420 363 -9 0 -19 -4 -21 -9z"/>
<path d="M740 6180 c-162 -3 -296 -7 -297 -8 -2 -1 -12 -21 -24 -44 -12 -24
-32 -57 -45 -74 -13 -17 -24 -34 -24 -38 0 -3 -14 -25 -31 -49 l-31 -42 124
-8 c68 -4 180 -4 250 -1 l127 6 7 -26 c3 -15 1 -32 -4 -39 -7 -8 -13 -174 -18
-470 l-7 -457 151 0 152 0 2 453 c1 248 2 469 3 490 l0 37 132 0 c72 0 143 4
157 10 19 7 41 40 88 132 35 68 64 126 66 131 4 7 -284 6 -778 -3z"/>
<path d="M1863 6183 l-233 -3 0 -294 c0 -161 3 -442 7 -625 l6 -333 494 3
c354 3 493 7 493 15 0 6 -11 27 -24 47 -14 20 -40 74 -58 120 l-33 84 -292 -4
-293 -5 0 115 0 114 280 -3 c196 -2 282 1 287 9 3 6 8 68 11 139 l5 128 -292
0 -291 0 0 69 c0 37 -3 89 -6 114 l-7 45 179 -2 c99 -1 222 1 274 4 l95 5 30
60 c17 33 47 90 68 127 20 36 37 69 37 72 0 6 -195 5 -737 -1z"/>
<path d="M4178 6182 l-328 -2 0 -619 0 -619 23 -6 c30 -8 723 -8 863 1 l112 6
-29 48 c-15 26 -35 70 -44 96 -9 26 -23 62 -31 79 l-15 32 -290 -5 -289 -5 0
114 0 114 284 -2 c333 -1 296 -21 296 159 l0 117 -290 0 -290 0 0 54 c0 29 -3
81 -6 115 l-7 61 270 0 c245 0 271 2 285 18 8 9 43 70 77 135 l62 118 -163 -3
c-90 -2 -310 -4 -490 -6z"/>
<path d="M4977 6183 c-3 -5 -9 -289 -13 -631 l-7 -622 158 0 158 0 -5 391 c-4
215 -4 389 -2 387 2 -3 59 -94 127 -204 239 -387 252 -406 260 -392 40 66 361
587 370 601 9 14 11 -64 9 -360 -2 -208 0 -388 3 -400 5 -22 9 -23 139 -23
l133 0 6 287 c4 157 7 441 7 630 l0 343 -132 0 c-73 0 -138 -4 -143 -8 -6 -4
-37 -50 -70 -102 -32 -52 -102 -160 -153 -239 -52 -80 -111 -175 -130 -213
-19 -37 -38 -65 -42 -63 -4 3 -15 22 -25 42 -28 61 -359 562 -375 569 -27 10
-267 17 -273 7z"/>
<path d="M7730 5928 c0 -145 -3 -428 -7 -630 l-6 -368 145 0 146 0 6 133 c3
72 9 230 12 350 l7 219 29 -58 c16 -31 84 -139 151 -238 126 -189 247 -383
247 -398 0 -10 188 -9 214 1 18 7 19 29 24 507 2 274 1 552 -3 617 l-7 117
-150 0 -151 0 5 -310 c2 -170 3 -310 1 -310 -1 0 -12 18 -23 41 -37 71 -160
253 -303 448 -95 130 -114 140 -244 141 l-93 0 0 -262z"/>
<path d="M8953 6078 c-52 -59 -99 -108 -104 -110 -4 -2 -9 -71 -10 -155 l-1
-152 77 -88 c43 -48 89 -105 103 -126 l26 -39 299 8 300 7 -9 -34 c-8 -32 -8
-95 -2 -164 l3 -30 -344 0 -344 -1 -56 -99 c-32 -55 -65 -112 -74 -126 l-17
-26 46 -7 c26 -3 230 -6 453 -6 l406 0 44 38 c25 20 74 65 109 100 l65 62 1
175 0 175 -55 58 c-31 31 -73 79 -95 106 l-39 49 -270 -6 c-148 -3 -286 -11
-305 -16 -19 -6 -35 -11 -35 -11 0 0 0 56 0 125 l0 125 320 0 320 0 40 68 c21
37 50 87 63 111 13 24 30 54 38 65 8 11 14 24 14 29 0 5 -190 7 -436 6 l-435
-4 -96 -107z"/>
<path d="M2770 6160 c0 -11 -4 -22 -10 -25 -6 -4 -10 -217 -10 -606 l0 -599
505 0 505 0 -21 39 c-11 22 -27 45 -35 52 -8 6 -14 18 -14 26 0 8 -9 26 -20
40 -11 14 -20 33 -20 42 0 9 -7 27 -16 39 -15 22 -17 22 -289 22 -172 0 -276
-4 -280 -10 -22 -35 -25 27 -25 493 l0 502 -135 1 c-125 2 -135 0 -135 -16z"/>
<path d="M7450 6034 c-69 -45 -133 -89 -143 -99 -17 -15 -18 -39 -15 -386 3
-325 1 -369 -12 -363 -19 7 -457 5 -487 -3 -18 -4 -23 -1 -23 13 2 153 -11
695 -17 711 -7 18 -95 79 -270 186 -10 7 -13 -87 -13 -455 l0 -464 75 -89 c41
-49 85 -104 97 -122 l23 -33 365 1 365 1 71 81 c38 45 79 86 91 91 20 9 20 20
27 325 8 349 7 680 -3 684 -3 2 -62 -34 -131 -79z"/>
<path d="M7040 4534 c-57 -20 -88 -48 -101 -93 -6 -22 -9 -131 -7 -286 3 -281
7 -300 76 -344 53 -35 170 -42 234 -13 68 30 98 75 117 175 l8 47 -83 0 -83 0
-7 -51 c-8 -57 -24 -79 -59 -79 -39 0 -53 24 -60 104 -12 121 -2 400 14 419
16 20 74 22 89 4 10 -11 19 -58 21 -107 1 -12 18 -15 81 -16 l80 -2 0 27 c0
35 -25 114 -46 146 -45 68 -181 103 -274 69z"/>
<path d="M8314 4165 l1 -375 62 0 c40 0 63 4 66 13 3 9 9 9 26 -1 42 -24 113
-26 164 -4 78 35 82 48 82 267 0 174 -2 193 -21 225 -11 19 -33 41 -49 49 -36
18 -132 15 -162 -4 -12 -8 -25 -15 -28 -15 -3 0 -5 50 -5 110 l0 110 -68 0
-69 0 1 -375z m235 51 c16 -41 24 -253 11 -290 -14 -42 -48 -56 -82 -34 -20
14 -21 21 -20 169 1 85 1 158 1 162 1 12 43 25 64 19 10 -3 22 -14 26 -26z"/>
<path d="M9000 4165 l0 -375 70 0 70 0 0 375 0 375 -70 0 -70 0 0 -375z"/>
<path d="M7740 4348 c-62 -17 -110 -80 -110 -143 0 -24 2 -25 70 -25 39 0 73
-1 78 -2 4 -2 8 12 10 30 4 38 23 49 58 34 19 -9 24 -19 24 -50 l0 -39 -94
-37 c-51 -20 -103 -47 -115 -60 -31 -33 -48 -133 -32 -184 25 -74 127 -111
219 -79 23 8 42 11 42 6 0 -5 29 -9 63 -9 l64 0 6 137 c14 287 8 341 -45 390
-38 36 -164 52 -238 31z m138 -392 c-2 -40 -8 -53 -30 -69 -36 -27 -73 -12
-83 32 -9 42 12 81 60 108 l40 22 8 -22 c4 -11 7 -43 5 -71z"/>
<path d="M9538 4348 c-20 -5 -54 -24 -74 -42 l-38 -33 -4 -189 c-4 -221 2
-243 78 -282 39 -20 55 -23 122 -19 121 8 170 48 184 150 l7 47 -75 0 -75 0
-6 -36 c-7 -44 -23 -64 -51 -64 -36 0 -46 20 -46 92 l0 68 119 0 119 0 7 83
c5 69 3 89 -13 127 -26 59 -57 86 -112 99 -54 13 -92 12 -142 -1z m116 -124
c3 -9 6 -33 6 -55 l0 -39 -50 0 -50 0 0 43 c0 24 5 48 12 55 18 18 75 15 82
-4z"/>
</g>
</svg>
