<?xml version="1.0" standalone="no"?>
<!DOCTYPE svg PUBLIC "-//W3C//DTD SVG 20010904//EN"
 "http://www.w3.org/TR/2001/REC-SVG-20010904/DTD/svg10.dtd">
<svg version="1.0" xmlns="http://www.w3.org/2000/svg"
 width="1100.000000pt" height="250.000000pt" viewBox="0 0 1100.000000 250.000000"
 preserveAspectRatio="xMidYMid meet">

<g transform="translate(0.000000,250.000000) scale(0.100000,-0.100000)"
fill="#000000" stroke="none">
<path d="M311 1930 l-92 -100 238 -2 238 -3 3 -407 2 -408 145 0 145 0 2 408
3 407 145 3 145 3 93 92 c50 50 92 95 92 99 0 5 -240 8 -534 8 l-533 0 -92
-100z"/>
<path d="M1620 1520 l0 -510 537 0 538 0 -100 100 -100 100 -292 0 -293 0 0
105 0 105 295 0 295 0 0 100 0 100 -295 0 -296 0 3 103 3 102 296 3 297 2 92
100 92 100 -536 0 -536 0 0 -510z"/>
<path d="M2840 1520 l0 -510 537 0 538 0 -100 100 -100 100 -292 0 -293 0 -2
408 -3 407 -142 3 -143 3 0 -511z"/>
<path d="M4053 2014 c-6 -17 3 -994 10 -1000 2 -2 241 -3 531 -2 l526 3 -91
98 -91 97 -293 0 -294 0 -3 101 c-2 55 -1 103 1 105 2 2 134 4 293 4 l288 0 0
100 0 100 -295 0 -296 0 3 103 3 102 295 3 295 3 93 92 c50 50 92 95 92 99 0
5 -239 8 -530 8 -482 0 -531 -1 -537 -16z"/>
<path d="M5270 1520 l0 -510 145 0 145 0 0 300 c0 165 3 300 8 300 4 0 72 -91
151 -201 l143 -200 147 3 146 3 132 185 c73 101 140 191 148 199 13 14 15 -18
15 -287 l0 -302 145 0 145 0 0 510 0 511 -147 -3 -147 -3 -215 -302 c-119
-166 -219 -302 -223 -303 -3 0 -106 137 -228 305 l-222 305 -144 0 -144 0 0
-510z"/>
<path d="M8130 1520 l0 -510 145 0 145 0 0 361 c0 220 4 358 9 354 5 -3 139
-165 297 -360 l288 -355 148 0 148 0 0 428 c0 235 -3 464 -7 510 l-6 83 -141
-3 -141 -3 4 -357 c2 -214 0 -358 -5 -358 -6 0 -141 162 -302 360 l-293 360
-144 0 -145 0 0 -510z"/>
<path d="M9546 1926 l-96 -104 0 -103 0 -104 97 -97 96 -98 343 0 344 0 0
-105 0 -105 -344 0 -344 0 -91 -97 -90 -98 482 -3 481 -2 98 97 98 98 0 104 0
104 -96 103 -96 104 -344 0 -345 0 3 103 3 102 341 3 342 2 88 91 c49 49 91
94 92 100 2 5 -182 9 -481 9 l-485 0 -96 -104z"/>
<path d="M6882 1548 l3 -333 275 -151 275 -152 86 46 c47 26 171 94 277 152
l192 105 0 333 0 333 -22 -12 c-13 -6 -76 -41 -140 -76 l-118 -64 0 -179 0
-178 -129 -71 c-71 -39 -134 -72 -139 -73 -5 -2 -71 30 -146 71 l-136 74 -2
181 -3 180 -130 73 c-71 39 -133 72 -138 73 -4 0 -6 -150 -5 -332z"/>
<path d="M8701 692 c-67 -34 -76 -57 -76 -206 0 -142 7 -167 59 -202 34 -22
123 -29 170 -12 51 17 78 54 84 117 l5 51 -57 0 c-56 0 -56 0 -56 -31 0 -17
-5 -39 -10 -50 -13 -22 -52 -25 -70 -4 -16 20 -17 240 0 260 27 33 80 6 80
-41 0 -22 3 -24 55 -24 53 0 55 1 55 26 0 14 -8 42 -17 61 -30 65 -147 94
-222 55z"/>
<path d="M9610 480 l0 -220 45 0 c39 0 45 3 45 21 0 18 2 19 15 5 36 -35 115
-31 139 7 35 56 25 257 -14 289 -27 22 -78 23 -108 2 l-22 -15 0 65 0 66 -50
0 -50 0 0 -220z m158 -53 c2 -71 0 -88 -13 -93 -32 -13 -45 15 -45 96 0 83 4
92 35 88 18 -3 20 -11 23 -91z"/>
<path d="M10080 480 l0 -220 50 0 50 0 0 220 0 220 -50 0 -50 0 0 -220z"/>
<path d="M9195 586 c-29 -13 -55 -51 -55 -81 0 -11 13 -15 48 -15 39 0 49 4
57 23 13 29 59 31 63 1 3 -22 -5 -27 -96 -65 -84 -35 -107 -105 -53 -160 33
-33 79 -38 121 -14 32 18 40 18 40 0 0 -11 13 -15 53 -15 l52 0 -6 137 c-3 76
-11 148 -17 159 -22 42 -141 59 -207 30z m115 -192 c0 -53 -38 -82 -68 -52
-18 18 -15 35 10 58 31 29 58 26 58 -6z"/>
<path d="M10434 590 c-12 -4 -31 -21 -43 -36 -18 -23 -21 -40 -21 -125 0 -90
2 -100 25 -128 64 -76 235 -41 235 49 0 29 -2 30 -44 30 -38 0 -45 -3 -48 -21
-8 -58 -68 -43 -68 17 l0 33 83 3 82 3 -3 58 c-1 33 -7 68 -13 79 -21 40 -127
62 -185 38z m94 -62 c7 -7 12 -22 12 -35 0 -20 -5 -23 -35 -23 -30 0 -35 3
-35 23 0 24 17 47 35 47 6 0 16 -5 23 -12z"/>
</g>
</svg>
